<?xml version="1.0" encoding="UTF-8"?><svg xmlns="http://www.w3.org/2000/svg" viewBox="0 0 618.83 107.82"><g id="a"/><g id="b"><g><path d="M3.11,67.59c0-21.09,16.18-37.14,37.72-37.14,17.34,0,31.21,11.27,35.11,27.02h-14.16c-3.03-8.96-11.13-14.59-20.95-14.59-14.02,0-23.84,10.12-23.84,24.71s10.26,25.29,23.84,25.29c10.26,0,18.35-6.36,21.24-15.75h14.02c-3.61,16.33-17.63,28.18-35.26,28.18-21.53,0-37.72-16.18-37.72-37.72Z"/><path d="M180.36,102.34V13.55h-19.02V1.99h32.75V102.34h-13.73Z"/><path d="M549.54,102.34V13.55h-19.02V1.99h32.75V102.34h-13.73Z"/><path d="M298.36,81.61h12.72c1.16,7.08,8.96,11.56,20.37,11.56,12.14,0,17.77-3.32,17.77-9.39s-4.33-7.8-17.92-9.54c-17.34-2.46-29.77-5.93-29.77-22.83,0-13.44,10.55-20.95,28.76-20.95s29.19,8.38,29.91,22.83h-12.57c-.58-7.23-6.21-10.69-17.34-10.69-10.4,0-15.32,2.75-15.32,7.66,0,7.37,4.19,8.52,17.63,10.84,12.57,1.73,30.06,3.76,30.06,22.11,0,13.87-11.27,22.11-31.21,22.11s-32.66-8.67-33.09-23.7Z"/><path d="M374.17,81.61h12.72c1.16,7.08,8.96,11.56,20.37,11.56,12.14,0,17.77-3.32,17.77-9.39s-4.33-7.8-17.92-9.54c-17.34-2.46-29.77-5.93-29.77-22.83,0-13.44,10.55-20.95,28.76-20.95s29.19,8.38,29.91,22.83h-12.57c-.58-7.23-6.21-10.69-17.34-10.69-10.4,0-15.32,2.75-15.32,7.66,0,7.37,4.19,8.52,17.63,10.84,12.57,1.73,30.06,3.76,30.06,22.11,0,13.87-11.27,22.11-31.21,22.11s-32.66-8.67-33.09-23.7Z"/><path d="M450.75,67.59c0-21.09,14.3-37.14,33.52-37.14,10.98,0,19.22,4.05,25.58,12.57v-10.55h13.01v59.97h7.66v9.89h-17.34l-3.32-10.9c-5.92,9.39-14.02,13.87-25.58,13.87-19.22,0-33.52-16.18-33.52-37.72Zm58.96,0c0-14.02-10.12-24.71-23.56-24.71-12.71,0-21.53,10.12-21.53,24.71s8.82,25.29,21.53,25.29c13.44,0,23.56-10.84,23.56-25.29Z"/><path d="M125.44,105.31c-20.85,0-37.81-16.96-37.81-37.81s16.96-37.81,37.81-37.81,37.81,16.96,37.81,37.81-16.96,37.81-37.81,37.81Zm0-62.32c-13.51,0-24.5,10.99-24.5,24.5s10.99,24.5,24.5,24.5,24.5-10.99,24.5-24.5-10.99-24.5-24.5-24.5Z"/><path d="M280.83,48.91c-2.76-4.81-6.56-8.99-11.08-12.2-1.27-.9-1.92-2.45-1.72-4l1.36-10.73c.15-1.2-.5-2.37-1.61-2.83-6.34-2.62-13.05-3.95-19.96-3.95s-13.64,1.33-19.98,3.97c-1.11,.46-1.76,1.64-1.61,2.83l1.36,10.72c.2,1.55-.45,3.1-1.72,4-4.52,3.21-8.31,7.38-11.07,12.19-3.27,5.71-5,12.22-5,18.83,0,20.96,17.05,38.02,38.02,38.02s38.02-17.05,38.02-38.02c0-6.61-1.73-13.12-5-18.83Zm-52.33-10.55c-.24-1.81,.69-3.59,2.33-4.42,5.24-2.65,11.06-4.04,16.99-4.04s11.74,1.39,16.99,4.04c1.64,.83,2.56,2.61,2.33,4.42l-1.64,12.68c-.1,.75,.14,1.5,.61,2.09,5.2,6.53,6.71,15.48,3.29,23.7-3.12,7.52-10.15,12.94-18.21,14.08-16.94,2.38-31.08-13.51-25.58-30.79,.81-2.55,2.19-4.88,3.88-6.96,.48-.59,.72-1.35,.63-2.1l-1.61-12.7Z"/></g><path d="M616.09,16.72c0,8.31-6.76,14.96-14.9,14.96s-14.85-6.65-14.85-14.96,6.59-14.73,14.85-14.73,14.9,6.65,14.9,14.73Zm-5.27,0c0-5.45-4.01-9.92-9.57-9.92s-9.63,4.47-9.63,9.92,3.9,10.03,9.63,10.03,9.57-4.53,9.57-10.03Zm-6.71,.52c2.29,.23,3.26,1.15,3.26,3.04v.63c0,1.09,.06,1.61,.34,2.69h-4.18c-.23-.52-.34-1.32-.34-2.75v-.52c0-1.03-.52-1.43-1.49-1.43h-2.07v4.7h-4.24V9.89h7.62c2.87,0,4.7,1.49,4.7,3.84,0,2.01-1.38,3.21-3.61,3.5Zm-.75-2.81c0-.8-.52-1.15-1.43-1.15h-2.29v2.46h2.24c.98,0,1.49-.4,1.49-1.32Z"/></g><g id="c"/></svg>